<svg fill="#FF0000" role="img" viewBox="0 0 24 24" xmlns="http://www.w3.org/2000/svg"><title>Adobe</title><path d="M13.966 22.624l-1.69-4.281H8.122l1.455 3.711L6 22.624l1.69-4.281H2.407l-1.455-3.711L0 22.624h3.878l-.53-1.343h1.692l.53 1.343H13.966zm-.882-6.374l1.69-4.281H15.78l-1.455-3.711L18 7.624l-1.69 4.281h4.283l1.455 3.711L24 7.624h-3.878l.53 1.343h-1.692l-.53-1.343H10.034zm.882 2.031l-1.69 4.281H8.78l1.455 3.711L6 18.593l1.69-4.281H3.407l-1.455-3.711L0 18.593h3.878l-.53-1.343h1.692l.53 1.343h6.125zm0-6.374l1.69-4.281h1.114l-1.455-3.711L18 3.593l-1.69 4.281h4.283l1.455 3.711L24 3.593h-3.878l.53 1.343h-1.692l-.53-1.343H10.034z"/></svg>