<svg fill="#FF9900" role="img" viewBox="0 0 24 24" xmlns="http://www.w3.org/2000/svg"><title>Amazon</title><path d="M15.331 6.547c0-.072.063-.127.135-.127h2.654c.063 0 .127.054.127.127v.764c0 .072-.063.135-.127.135h-2.654c-.072 0-.135-.063-.135-.135v-.764zm-.135 1.269c0-.072.063-.135.135-.135h2.654c.063 0 .127.063.127.135v2.654c0 .063-.063.127-.127.127h-2.654c-.072 0-.135-.063-.135-.127V7.816zm3.924 3.59c0-.072.063-.135.135-.135h2.654c.063 0 .127.063.127.135v2.654c0 .063-.063.127-.127.127h-2.654c-.072 0-.135-.063-.135-.127v-2.654zm-.135-5.719c0-.072.063-.135.135-.135h2.654c.063 0 .127.063.127.135v2.654c0 .063-.063.127-.127.127h-2.654c-.072 0-.135-.063-.135-.127V5.687zm-3.789 0c0-.072.063-.135.135-.135h2.654c.063 0 .127.063.127.135v2.654c0 .063-.063.127-.127.127h-2.654c-.072 0-.135-.063-.135-.127V5.687zm-3.59 0c0-.072.063-.135.135-.135h2.654c.063 0 .127.063.127.135v2.654c0 .063-.063.127-.127.127h-2.654c-.072 0-.135-.063-.135-.127V5.687zm-3.59 0c0-.072.063-.135.135-.135h2.654c.063 0 .127.063.127.135v2.654c0 .063-.063.127-.127.127h-2.654c-.072 0-.135-.063-.135-.127V5.687zm-3.59 0c0-.072.063-.135.135-.135h2.654c.063 0 .127.063.127.135v2.654c0 .063-.063.127-.127.127h-2.654c-.072 0-.135-.063-.135-.127V5.687zm-.135 3.789c0-.072.063-.135.135-.135h2.654c.063 0 .127.063.127.135v2.654c0 .063-.063.127-.127.127h-2.654c-.072 0-.135-.063-.135-.127v-2.654zm18.418 0c0-.072.063-.135.135-.135h2.654c.063 0 .127.063.127.135v2.654c0 .063-.063.127-.127.127h-2.654c-.072 0-.135-.063-.135-.127v-2.654zm-15.828 0c0-.072.063-.135.135-.135h2.654c.063 0 .127.063.127.135v2.654c0 .063-.063.127-.127.127h-2.654c-.072 0-.135-.063-.135-.127v-2.654zm12.238 0c0-.072.063-.135.135-.135h2.654c.063 0 .127.063.127.135v2.654c0 .063-.063.127-.127.127h-2.654c-.072 0-.135-.063-.135-.127v-2.654zm-9.648 0c0-.072.063-.135.135-.135h2.654c.063 0 .127.063.127.135v2.654c0 .063-.063.127-.127.127h-2.654c-.072 0-.135-.063-.135-.127v-2.654zm-3.59 0c0-.072.063-.135.135-.135h2.654c.063 0 .127.063.127.135v2.654c0 .063-.063.127-.127.127h-2.654c-.072 0-.135-.063-.135-.127v-2.654zm18.418 3.59c0-.072.063-.135.135-.135h2.654c.063 0 .127.063.127.135v2.654c0 .063-.063.127-.127.127h-2.654c-.072 0-.135-.063-.135-.127v-2.654zm-21.008 0c0-.072.063-.135.135-.135h2.654c.063 0 .127.063.127.135v2.654c0 .063-.063.127-.127.127h-2.654c-.072 0-.135-.063-.135-.127v-2.654zm21.008 3.59c0-.072.063-.135.135-.135h2.654c.063 0 .127.063.127.135v2.654c0 .063-.063.127-.127.127h-2.654c-.072 0-.135-.063-.135-.127v-2.654zm-21.008 0c0-.072.063-.135.135-.135h2.654c.063 0 .127.063.127.135v2.654c0 .063-.063.127-.127.127h-2.654c-.072 0-.135-.063-.135-.127v-2.654zm3.59 0c0-.072.063-.135.135-.135h2.654c.063 0 .127.063.127.135v2.654c0 .063-.063.127-.127.127h-2.654c-.072 0-.135-.063-.135-.127v-2.654zm6.19 0c0-.072.063-.135.135-.135h2.654c.063 0 .127.063.127.135v2.654c0 .063-.063.127-.127.127h-2.654c-.072 0-.135-.063-.135-.127v-2.654zm6.19 0c0-.072.063-.135.135-.135h2.654c.063 0 .127.063.127.135v2.654c0 .063-.063.127-.127.127h-2.654c-.072 0-.135-.063-.135-.127v-2.654zm3.59 0c0-.072.063-.135.135-.135h2.654c.063 0 .127.063.127.135v2.654c0 .063-.063.127-.127.127h-2.654c-.072 0-.135-.063-.135-.127v-2.654zm-15.78 0c0-.072.063-.135.135-.135h2.654c.063 0 .127.063.127.135v2.654c0 .063-.063.127-.127.127h-2.654c-.072 0-.135-.063-.135-.127v-2.654zm-3.59 0c0-.072.063-.135.135-.135h2.654c.063 0 .127.063.127.135v2.654c0 .063-.063.127-.127.127h-2.654c-.072 0-.135-.063-.135-.127v-2.654z"/></svg>