<svg fill="#FF9900" role="img" viewBox="0 0 24 24" xmlns="http://www.w3.org/2000/svg"><title>Amazon Web Services</title><path d="M18.5 9.51l-.01-.01-4.98-4.98v5.01h5.01zm-5.01 5.01V9.51h5.01l-5.01 5.01zm0-5.01H8.49v5.01h5.01V9.51zm-5.01 5.01H3.48l5.01-5.01v5.01zM8.49 4.5L3.48 9.51H8.5V4.5zm0 15.02h5.01v-5.01H8.49v5.01zm5.01 0v5.01l4.98-4.98h-4.98zm-5.01 5.01v-5.01H3.48l4.98 4.98h.02zm10.02-10.02h5.01v5.01h-5.01v-5.01zM13.5 19.53l4.98 4.98v-5.01h-4.98v.03zm-5.01-5.01v5.01H8.49v-5.01h.02z"/></svg>